HIERARCHY
ROOT SpineBase
{
  OFFSET 0.000000 0.000000 0.000000
  CHANNELS 6 Xposition Yposition Zposition Zrotation Xrotation Yrotation
  JOINT SpineMid
  {
    OFFSET 0.000000 21.363265 0.000000
    CHANNELS 3 Zrotation Xrotation Yrotation
    JOINT SpineShoulder
    {
      OFFSET -0.224388 15.526735 -0.308134
      CHANNELS 3 Zrotation Xrotation Yrotation
      JOINT Neck
      {
        OFFSET -0.077579 5.177437 -0.298928
        CHANNELS 3 Zrotation Xrotation Yrotation
        JOINT Head
        {
          OFFSET 5.221211 6.158641 7.322547
          CHANNELS 3 Zrotation Xrotation Yrotation
          End Site
          {
            OFFSET 0 0 0
          }
        }
      }
      JOINT ShoulderLeft
      {
        OFFSET -5.009985 -6.117820 -4.594106
        CHANNELS 3 Zrotation Xrotation Yrotation
        JOINT ElbowLeft
        {
          OFFSET -6.039834 -15.266842 -5.685877
          CHANNELS 3 Zrotation Xrotation Yrotation
          JOINT WristLeft
          {
            OFFSET 8.223928 -14.096477 -6.112420
            CHANNELS 3 Zrotation Xrotation Yrotation
            JOINT HandLeft
            {
              OFFSET 3.335846 -4.545807 0.087786
              CHANNELS 3 Zrotation Xrotation Yrotation
              JOINT HandTipLeft
              {
                OFFSET -0.186812 -4.655840 -2.134905
                CHANNELS 3 Zrotation Xrotation Yrotation
                End Site
                {
                  OFFSET 0 0 0
                }
              }
              JOINT ThumbLeft
              {
                OFFSET -0.525150 -4.307616 -3.565203
                CHANNELS 3 Zrotation Xrotation Yrotation
                End Site
                {
                  OFFSET 0 0 0
                }
              }
            }
          }
        }
      }
      JOINT ShoulderRight
      {
        OFFSET 8.367617 3.184236 -1.096519
        CHANNELS 3 Zrotation Xrotation Yrotation
        JOINT ElbowRight
        {
          OFFSET 3.245147 -16.523682 -3.900343
          CHANNELS 3 Zrotation Xrotation Yrotation
          JOINT WristRight
          {
            OFFSET -16.188001 -6.194194 -0.919837
            CHANNELS 3 Zrotation Xrotation Yrotation
            JOINT HandRight
            {
              OFFSET -5.395877 -2.172776 -0.073213
              CHANNELS 3 Zrotation Xrotation Yrotation
              JOINT HandTipRight
              {
                OFFSET -0.300074 -4.499042 -1.545308
                CHANNELS 3 Zrotation Xrotation Yrotation
                End Site
                {
                  OFFSET 0 0 0
                }
              }
              JOINT ThumbRight
              {
                OFFSET -1.551618 2.490624 -1.047420
                CHANNELS 3 Zrotation Xrotation Yrotation
                End Site
                {
                  OFFSET 0 0 0
                }
              }
            }
          }
        }
      }
    }
  }
  JOINT HipLeft
  {
    OFFSET -3.325302 0.739781 1.762717
    CHANNELS 3 Zrotation Xrotation Yrotation
    JOINT KneeLeft
    {
      OFFSET 9.917169 -26.375671 -5.233795
      CHANNELS 3 Zrotation Xrotation Yrotation
      JOINT AnkleLeft
      {
        OFFSET -4.636976 -35.197119 10.295254
        CHANNELS 3 Zrotation Xrotation Yrotation
        JOINT FootLeft
        {
          OFFSET 0.569721 -2.333659 -10.087588
          CHANNELS 3 Zrotation Xrotation Yrotation
          End Site
          {
            OFFSET 0 0 0
          }
        }
      }
    }
  }
  JOINT HipRight
  {
    OFFSET 4.284011 3.496124 -6.523058
    CHANNELS 3 Zrotation Xrotation Yrotation
    JOINT KneeRight
    {
      OFFSET -8.406584 -26.944680 -2.686464
      CHANNELS 3 Zrotation Xrotation Yrotation
      JOINT AnkleRight
      {
        OFFSET -3.656511 -27.046022 -3.122615
        CHANNELS 3 Zrotation Xrotation Yrotation
        JOINT FootRight
        {
          OFFSET 1.122293 11.549534 -0.348131
          CHANNELS 3 Zrotation Xrotation Yrotation
          End Site
          {
            OFFSET 0 0 0
          }
        }
      }
    }
  }
}
MOTION
Frames: 12
Frame Time: 0.033333
-11.677110 75.425053 310.122959 -0.000000 0.000000 47.436924 0.000000 0.000000 -47.436924 -0.000000 0.000000 0.000000 -0.000000 0.000000 0.000000 0.000000 0.000000 0.000000 -0.000000 0.000000 0.000000 -0.000000 0.000000 0.000000 -0.000000 0.000000 0.000000 -0.000000 0.000000 0.000000 0.000000 0.000000 0.000000 0.000000 0.000000 0.000000 -0.000000 0.000000 0.000000 -0.000000 0.000000 0.000000 -0.000000 0.000000 0.000000 -0.000000 0.000000 0.000000 0.000000 0.000000 0.000000 0.000000 0.000000 0.000000 0.000000 0.000000 -47.436924 -0.000000 0.000000 0.000000 -0.000000 0.000000 0.000000 0.000000 0.000000 0.000000 0.000000 0.000000 -47.436924 -0.000000 0.000000 0.000000 -0.000000 0.000000 0.000000 0.000000 0.000000 0.000000
-11.651080 74.957676 310.216891 0.092852 0.090525 44.286494 -0.129677 0.000031 -44.286568 -0.000000 0.000000 0.000000 -0.000000 0.000000 0.000000 0.000000 0.000000 0.000000 -0.000000 0.000000 0.000000 -0.000000 0.000000 0.000000 -0.000000 0.000000 0.000000 -0.000000 0.000000 0.000000 0.000000 0.000000 0.000000 0.000000 0.000000 0.000000 -0.000000 0.000000 0.000000 -0.000000 0.000000 0.000000 -0.000000 0.000000 0.000000 -0.000000 0.000000 0.000000 0.000000 0.000000 0.000000 0.000000 0.000000 0.000000 -0.575759 -0.635887 -44.602357 -0.128914 0.765999 0.314175 -0.000000 0.000000 0.000000 0.000000 0.000000 0.000000 0.603372 0.921411 -44.645639 0.125892 -1.170645 0.354463 -0.000000 0.000000 0.000000 0.000000 0.000000 0.000000
-11.606735 74.554536 310.306246 0.170264 0.171905 41.333025 -0.241380 -0.016632 -41.333315 -0.000000 0.000000 0.000000 -0.000000 0.000000 0.000000 0.000000 0.000000 0.000000 -0.000000 0.000000 0.000000 -0.000000 0.000000 0.000000 -0.000000 0.000000 0.000000 -0.000000 0.000000 0.000000 0.000000 0.000000 0.000000 0.000000 0.000000 0.000000 -0.000000 0.000000 0.000000 -0.000000 0.000000 0.000000 -0.000000 0.000000 0.000000 -0.000000 0.000000 0.000000 0.000000 0.000000 0.000000 0.000000 0.000000 0.000000 -0.968279 -1.264278 -41.930328 -0.292899 1.413911 0.592502 -0.000000 0.000000 0.000000 0.000000 0.000000 0.000000 1.011510 1.756131 -42.001228 0.254962 -2.155681 0.653688 -0.000000 0.000000 0.000000 0.000000 0.000000 0.000000
-11.544074 74.215634 310.391025 0.231540 0.243515 38.699105 -0.332956 -0.045281 -38.699729 -0.000000 0.000000 0.000000 -0.000000 0.000000 0.000000 0.000000 0.000000 0.000000 -0.000000 0.000000 0.000000 -0.000000 0.000000 0.000000 -0.000000 0.000000 0.000000 -0.000000 0.000000 0.000000 0.000000 0.000000 0.000000 0.000000 0.000000 0.000000 -0.000000 0.000000 0.000000 -0.000000 0.000000 0.000000 -0.000000 0.000000 0.000000 -0.000000 0.000000 0.000000 0.000000 0.000000 0.000000 0.000000 0.000000 0.000000 -1.191311 -1.855490 -39.540218 -0.490459 1.942397 0.834564 -0.000000 0.000000 0.000000 0.000000 0.000000 0.000000 1.255681 2.477042 -39.620755 0.384339 -2.955800 0.897222 -0.000000 0.000000 0.000000 0.000000 0.000000 0.000000
-11.463096 73.940968 310.471228 0.276166 0.304840 36.499498 -0.403323 -0.080778 -36.500517 -0.000000 0.000000 0.000000 -0.000000 0.000000 0.000000 0.000000 0.000000 0.000000 -0.000000 0.000000 0.000000 -0.000000 0.000000 0.000000 -0.000000 0.000000 0.000000 -0.000000 0.000000 0.000000 0.000000 0.000000 0.000000 0.000000 0.000000 0.000000 -0.000000 0.000000 0.000000 -0.000000 0.000000 0.000000 -0.000000 0.000000 0.000000 -0.000000 0.000000 0.000000 0.000000 0.000000 0.000000 0.000000 0.000000 0.000000 -1.264723 -2.383373 -37.544083 -0.720255 2.350540 1.039816 -0.000000 0.000000 0.000000 0.000000 0.000000 0.000000 1.371232 3.061679 -37.615350 0.511720 -3.572064 1.084612 -0.464352 0.767156 -0.085419 0.000000 0.000000 0.000000
-11.363803 73.730540 310.546855 0.303822 0.355478 34.830520 -0.452423 -0.118260 -34.831930 -0.000000 0.000000 0.000000 -0.000000 0.000000 0.000000 0.000000 0.000000 0.000000 -0.000000 0.000000 0.000000 -0.000000 0.000000 0.000000 -0.000000 0.000000 0.000000 -0.000000 0.000000 0.000000 0.000000 0.000000 0.000000 0.000000 0.000000 0.000000 -0.000000 0.000000 0.000000 -0.000000 0.000000 0.000000 -0.000000 0.000000 0.000000 -0.000000 0.000000 0.000000 0.000000 0.000000 0.000000 0.000000 0.000000 0.000000 -1.211198 -2.828334 -36.036430 -0.981123 2.637770 1.207575 -0.000000 0.000000 0.000000 0.000000 0.000000 0.000000 1.392679 3.493892 -36.079490 0.635361 -4.005612 1.215402 -0.569482 0.845047 -0.095058 0.000000 0.000000 0.000000
-11.180904 73.677311 310.662353 0.220793 0.381761 33.366104 -0.394366 -0.197400 -33.367519 -0.000000 0.000000 0.000000 -0.000000 0.000000 0.000000 0.000000 0.000000 0.000000 -0.000000 0.000000 0.000000 -0.000000 0.000000 0.000000 -0.000000 0.000000 0.000000 -0.000000 0.000000 0.000000 0.000000 0.000000 0.000000 0.000000 0.000000 0.000000 -0.000000 0.000000 0.000000 0.853509 0.016695 -0.173884 0.014750 0.025394 0.037330 -0.868234 -0.044108 0.135906 0.000000 0.000000 0.000000 0.000000 0.000000 0.000000 -0.660009 -3.445457 -34.761358 -1.634866 2.819525 1.425629 -0.000000 0.000000 0.000000 0.000000 0.000000 0.000000 1.310863 3.903226 -34.693261 0.931903 -4.341874 1.305893 -0.811749 0.855197 -0.101466 0.000000 0.000000 0.000000
-11.035478 73.326822 310.816801 0.237315 0.484510 33.442527 -0.465042 -0.273503 -33.444640 -0.000000 0.000000 0.000000 -0.000000 0.000000 0.000000 0.000000 0.000000 0.000000 -0.000000 0.000000 0.000000 -0.000000 0.000000 0.000000 -0.000000 0.000000 0.000000 -0.000000 0.000000 0.000000 0.000000 0.000000 0.000000 0.000000 0.000000 0.000000 -0.000000 0.000000 0.000000 0.984774 0.018944 -0.200409 0.018694 0.029539 0.042503 -1.003434 -0.051175 0.157040 0.000000 0.000000 0.000000 0.000000 0.000000 0.000000 -0.790613 -3.566562 -34.862725 -1.616417 2.887819 1.447919 -0.000000 0.000000 0.000000 0.000000 0.000000 0.000000 1.373970 3.554384 -34.746260 0.670011 -4.193155 1.273469 -0.644539 0.851968 -0.097394 0.000000 0.000000 0.000000
-10.940770 73.099850 310.921865 0.293307 0.520616 33.736581 -0.533056 -0.270038 -33.739170 -0.000000 0.000000 0.000000 -0.000000 0.000000 0.000000 0.000000 0.000000 0.000000 -0.000000 0.000000 0.000000 -0.000000 0.000000 0.000000 -0.000000 0.000000 0.000000 -0.000000 0.000000 0.000000 0.000000 0.000000 0.000000 0.000000 0.000000 0.000000 -0.000000 0.000000 0.000000 1.117153 0.021479 -0.228049 0.019084 0.033215 0.049182 -1.136194 -0.058154 0.177756 0.000000 0.000000 0.000000 0.000000 0.000000 0.000000 -0.637316 -3.688710 -35.192044 -1.886550 2.853427 1.496262 -0.000000 0.000000 0.000000 0.000000 0.000000 0.000000 1.145218 3.563184 -34.992972 0.823215 -4.102474 1.235033 -0.776639 0.810209 -0.096607 0.000000 0.000000 0.000000
-10.894479 72.840997 310.988123 0.355748 0.300397 36.526761 -0.464666 -0.029648 -36.527814 -0.000000 0.000000 0.000000 -0.000000 0.000000 0.000000 0.000000 0.000000 0.000000 -0.000000 0.000000 0.000000 -0.823047 -0.053327 0.326831 0.823339 0.048626 -0.327563 -0.000000 0.000000 0.000000 0.000000 0.000000 0.000000 0.000000 0.000000 0.000000 -0.000000 0.000000 0.000000 1.245722 0.023792 -0.254662 0.020720 0.037012 0.055072 -1.266389 -0.065109 0.198208 0.000000 0.000000 0.000000 0.000000 0.000000 0.000000 0.098889 -2.758447 -37.620862 -2.112946 1.816767 1.140268 -0.000000 0.000000 0.000000 0.000000 0.000000 0.000000 1.238424 3.607905 -37.723371 0.878353 -3.918954 1.172406 -0.815515 0.772899 -0.094141 0.000000 0.000000 0.000000
-10.913954 72.667077 310.849136 0.416669 0.129721 36.932197 -0.411008 0.146672 -36.932143 -0.000000 0.000000 0.000000 -0.000000 0.000000 0.000000 0.000000 0.000000 0.000000 -0.000000 0.000000 0.000000 -0.904570 -0.058808 0.359202 0.904921 0.053129 -0.360086 -0.000000 0.000000 0.000000 0.000000 0.000000 0.000000 0.000000 0.000000 0.000000 -0.000000 0.000000 0.000000 1.371127 0.025924 -0.280441 0.023182 0.040792 0.060613 -1.394244 -0.071931 0.218153 0.000000 0.000000 0.000000 0.000000 0.000000 0.000000 0.054088 -2.424747 -37.967853 -1.949338 1.740586 1.074573 -0.000000 0.000000 0.000000 0.000000 0.000000 0.000000 1.288209 3.698287 -38.109845 0.854708 -3.842877 1.149341 -0.795789 0.781070 -0.094418 0.000000 0.000000 0.000000
-10.990091 72.684002 310.824602 0.493656 0.172764 31.135791 -0.511871 0.107380 -31.136055 -0.000000 0.000000 0.000000 -0.000000 0.000000 0.000000 0.000000 0.000000 0.000000 -0.000000 0.000000 0.000000 -0.984146 -0.064246 0.390767 0.984562 0.057524 -0.391814 -0.000000 0.000000 0.000000 0.000000 0.000000 0.000000 0.000000 0.000000 0.000000 -0.000000 0.000000 0.000000 1.493986 0.027906 -0.305564 0.025813 0.044602 0.065776 -1.519721 -0.078705 0.237797 0.000000 0.000000 0.000000 0.000000 0.000000 0.000000 -0.228090 -3.441513 -32.624798 -2.154236 2.835161 1.550319 -0.000000 0.000000 0.000000 0.000000 0.000000 0.000000 0.411556 4.466235 -32.331271 1.552696 -4.176598 1.214963 -0.805400 0.906463 -0.105944 0.000000 0.000000 0.000000
